<mxfile host="app.diagrams.net" modified="2024-02-15T06:52:36.490Z" agent="Mozilla/5.0 (Windows NT 10.0; Win64; x64) AppleWebKit/537.36 (KHTML, like Gecko) Chrome/121.0.0.0 Safari/537.36" version="23.0.2" etag="CQ10O4EfPGBn4YDS-vmp" type="github">
  <diagram name="Page-1" id="OcYoCKdu8xOpt9osHXqR">
    <mxGraphModel>
      <root>
        <mxCell id="0" />
        <mxCell id="1" parent="0" />
      </root>
    </mxGraphModel>
  </diagram>
</mxfile>
